/* XPM */
static char * logo_wimic_xpm[] = {
"48 48 37 1",
" 	c None",
".	c #000000",
"+	c #EF7441",
"@	c #EE7342",
"#	c #F07544",
"$	c #F07645",
"%	c #EF7645",
"&	c #EF7543",
"*	c #EE7545",
"=	c #F07746",
"-	c #ED7442",
";	c #EC7242",
">	c #EF7644",
",	c #EE7544",
"'	c #EF7544",
")	c #EE7443",
"!	c #EE7543",
"~	c #0D0501",
"{	c #EE7341",
"]	c #EE7242",
"^	c #EF7342",
"/	c #EB7442",
"(	c #060101",
"_	c #EF7443",
":	c #F07643",
"<	c #F07644",
"[	c #EE7444",
"}	c #EB7342",
"|	c #EF7545",
"1	c #EE7343",
"2	c #EF7344",
"3	c #ED7443",
"4	c #EE7441",
"5	c #EE7645",
"6	c #EE7241",
"7	c #EE7644",
"8	c #EC7341",
"                                                ",
"                                                ",
"                           .....                ",
"                          .........             ",
"                           .........            ",
"                               .......          ",
"                                 ......         ",
"                                   .....        ",
"                           ...      ....        ",
"                          ......     ....       ",
"                          ........    ....      ",
"                             ......    ...      ",
"                               ....    ...      ",
"                                ....   ....     ",
"                           +@    ...    ...     ",
"                         #$%%&    ...   ...     ",
"                         *===%-   ...   ...     ",
"                        ;>====,   ...   ...     ",
"                         '===>-   ..     ..     ",
"                .......  )#''!                  ",
"                ~.......   {]                   ",
"              {^   ......                       ",
"             /$%$!  (....                       ",
"             _%===$:  ....                      ",
"             &%====<&  ...                      ",
"             [%=====%' ...                      ",
"             '%======%} ..                      ",
"            !%========|                         ",
"           1'=========%2                        ",
"           ,==========%_                        ",
"          '%======>',)3                         ",
"         )>======$&                             ",
"        )|======$'                              ",
"        '======%,                               ",
"       ,%=====$'                                ",
"      !%=====%!                                 ",
"     1%=====%'                                  ",
"     4$====%_                                   ",
"      @>%=%5                                    ",
"        #|,|                                    ",
"         6 '                                    ",
"           7                                    ",
"           7                                    ",
"           7                                    ",
"           >                                    ",
"        -))'_)8                                 ",
"         @@{@@                                  ",
"                                                "};
